<svg xmlns="http://www.w3.org/2000/svg" version="1.1" xmlns:xlink="http://www.w3.org/1999/xlink" xmlns:svgjs="http://svgjs.dev/svgjs" width="2000" height="1500" viewBox="0 0 2000 1500"><rect width="2000" height="1500" fill="#000000"></rect><g transform="matrix(0.4444444444444444,0,0,0.4444444444444444,555.5555694444446,250)"><svg viewBox="0 0 320 360" data-background-color="#000000" preserveAspectRatio="xMidYMid meet" height="2250" width="2000" xmlns="http://www.w3.org/2000/svg" xmlns:xlink="http://www.w3.org/1999/xlink"><g id="tight-bounds" transform="matrix(1,0,0,1,0,0)"><svg viewBox="0 0 320 360" height="360" width="320"><rect width="320.000005" height="360" fill="url(#2413d2b1-81d6-47be-8a9d-c965224bed80)" mask="url(#614565f2-90aa-4cae-a26b-b79191c95b8d)" data-fill-palette-color="tertiary"></rect><g><svg></svg></g><g><svg viewBox="0 0 320 360" height="360" width="320"><g><path transform="translate(-19.44751,3.1739) scale(3.53591,3.53591)" d="M67.6 10.7c0.2 0 1.8 0.8 2.7 1.1-0.3 0.1-1-0.2-1.8-0.5 0.2 0 0.6 0.1 1 0.3-0.2-0.2-1.7-0.7-1.9-0.9M52.7 7.6c0.3-0.1 3.8 0.4 5.4 0.5 0.1-0.1-0.2-0.1-0.6-0.2 0.5-0.1 1.5 0.2 2.2 0.3-2.1 0.1-4.4-0.5-6.4-0.3-0.7 0-0.2-0.2-0.6-0.3M49.8 7.6c1.8 0 3.2 0 0.6 0.2-0.3-0.1-0.7-0.1-0.6-0.2M78.1 15.9c0.2 0 1 0.9 1.4 1.2-0.1 0.1-0.9-0.7-1.3-1 0.1 0.1 0 0-0.1-0.2M76.1 14.6c-0.8-0.7-1.1-0.7-1.2-1.1 0.7 0.4 1.2 0.8 1.2 1.1M63.2 8.3c0.1-0.1 0.3 0.1 0.8 0.2-0.6-0.1-0.5 0-0.3 0.2-0.7-0.1-0.9-0.2-0.7-0.4 0.4 0.2 0.5 0.1 0.2 0M34.8 9.5c0-0.1 0.4-0.3 0.7-0.4-0.3 0.2-0.2 0.3 0.3 0.1 0 0.1-0.6 0.3-1 0.5 0.2-0.1 0.4-0.4 0-0.2M65.2 7.3c-0.3 0.1-1.4-0.5-2.5-0.7-0.6-0.2 2.4 0.5 2.5 0.7M6.2 56.7c0.6 2.5 0.2 2.4 0 0M6.3 41.7c0.1-0.4 0.2-1.5 0.3-1.4-0.3 2.4-0.8 3.5-0.9 5.3 0.3-1.6-0.1 0.9-0.2 1.5 0.1 0.8 0.1-0.5 0.3-0.3 0.2 0.3-0.4 4.5-0.2 2.2-0.2 2.1 0 4.4 0.4 5-0.5 3.2 2 10.4 2.5 11.9 0.1 0.1 0-0.5 0.2-0.1 0.2 1.3 1.1 2.2 1.4 3.6 0.3 0.4 1.5 2.6 1.7 3.1 0.4 0.8 0.6 0.7 1 1.5 1.2 2.3 3.1 4.5 4.9 6.6 5.8 6.8 14.7 12.4 24.6 14.4 9.9 2.1 20.3 0.6 28.4-3.3 0.5-0.3 0.4-0.4 1-0.6 2.8-0.9 6.2-3.8 8.1-4.9 0.9-1 3.3-2.7 3.6-3.7 1.7-1.4 3.4-3.7 4.3-5.2 0.5-0.8 0.9-0.8 1.1-1.3-0.1 0 1.6-2.1 2.1-3.3-0.2 0-0.5 0.6-0.5 0 3.6-6.9 5.6-16.2 4.5-22.6 0.2 7.9-1.8 16.7-5.6 22.3-1.7 3.6-5.2 7.5-8.4 10.3-0.5 0.5-1 1.1-1.6 1.5-1.9 1.6-4 2.9-6.2 4.1-5.2 2.9-11 5.4-17.8 5.5 11.7-1 22.2-6.9 28-14.1-4.4 4.3-6.3 6-11.2 8.5-0.4 0.7-3.7 2.1-5.9 2.7 1.3-0.6 4-1.6 4.9-2.4-7.3 3.5-15.4 5.5-23 4.4 2.9 0 7 0.1 10.9-0.6 0.6-0.2 0.9-0.4 1.6-0.5 7.6-1.7 14.9-5.4 20.1-10.6-3 2.7-7.5 5.9-10.4 6.9 2.7-1.5 7.6-4.4 9.2-6.6-3.2 3.2-9.2 6.4-13 7.8-0.6 0.1 0.4-0.4-0.6 0-1.2 0.3-0.7 0.3-1 0.5-4.6 1.3-9.9 2.4-14.3 2-0.8-0.1-1.1-0.3-1.8-0.3-0.8-0.1-1.5-0.1-2.4-0.1-3.5-0.4-7.3-1.8-10.1-3-1.5-0.7-3-1.2-4.5-2.1-1.2-0.7-2.2-1.5-3.2-2.3-3.8-2.8-7-5.6-10-9.6-5.4-7.5-8.2-16.9-7.8-26.2 0.4-9.3 4.1-18.4 10-25.1-0.3 0.3 0.4-0.7 1-1.3 0 0.2-0.1 0.5 0.6-0.2 0.6-0.7-0.2-0.2 0.1-0.6 6.2-6.8 17-12.3 28.1-12.5 0.4-0.3 1.1-0.7 1.9-0.5 0 0.1-0.5 0.1-0.5 0.1 1.1-0.1 2.1-0.1 2.6 0.1 0.1-0.1-0.4-0.2 0-0.2 0.7 0.2 0.9 0 1.3 0.2-0.3 0-0.6 0-0.8 0.1 2.5 0 4.1 0.6 6.6 0.8-1.3-0.3-1.6-0.3-2.6-0.6 1.1 0.2 1.6 0.4 2.1 0.3-0.2 0-0.1-0.3 0.1-0.2 2 0.5 2.2 0.7 4.3 1.4 0.2-0.2-0.9-0.3-1.2-0.6 2 0.7 3.8 1.2 5 2-0.4-0.3-1.6-0.7-2.5-1.1-0.1 0.1 0.3 0.2 0.4 0.4-1-0.5-2.4-1-3.8-1.2 1.2 0.3 2 0.7 2.5 0.9-1.1-0.2-2.5-0.9-4.1-1.2 2.6 0.8 7.5 2.6 10.5 4.2-1.1-0.7-2.4-1.2-3.1-1.6 0.6 0.1 1.3 0.5 1.3 0.3 0.7 0.3 1.6 1 2.1 1.1-0.9-0.6-2.7-1.5-3.3-1.8 7.5 3.4 14.2 9.1 18.5 16.4 0.4 0.7 1 2.3 1.5 2.5-0.1-0.5-0.5-0.8-0.9-1.6 0.2 0 0.2-0.3 0-0.6-0.4-0.5 0 0.4-0.4-0.1-1.8-3.3-4-6.2-7.4-9.4 1.9 1.8 0.5 0.5 0.1-0.1 2.6 2.3 5.6 6.2 6.9 8.2-0.2-0.3-0.3-0.5-0.2-0.5 2.4 4.1 3.9 7.8 5.4 13.1 0.1 0.1 0-0.4 0.2-0.1 1 4.2 1.3 7.7 1.2 10.9 0.8-5.4-1-13.8-4.2-20.4-0.4-0.8-0.4-0.2-0.8-1.1 0-0.3-0.3-0.9-0.5-1.3-4-6.6-8.9-11.3-14.7-15 0.4 0.2 1.2 0.8 1.2 0.7-10.8-7.1-23.3-8.1-33.6-5.9-0.7 0.3-1 0.6-1.8 1 1.5-0.5 2.4-0.6 3.8-0.9 0.3-0.3-1.3 0.1-0.6-0.2 0.1 0.1 1.4-0.2 1.7-0.1 0 0.1-0.4 0.2-0.5 0.3 3.3-0.7 6.7-0.8 9.6-0.6-1.7 0.1-4.8-0.2-5.8 0.3 1-0.1 2.4-0.2 3.3-0.1-1.2 0-3.4 0.1-4.4 0.2-0.1-0.1 1.6-0.3 0.5-0.3-0.5 0.1-1.3 0.1-1.6 0.4-8.6 0.8-17 5.3-22.9 10.6-1.2 1-2.6 2.1-3.5 3.2-2.2 2.5-3.6 5-5.2 7.2 1-2.1 3.2-5.3 5.8-8 2.6-2.7 5.4-5 6.9-6.2 0 0.4 2.4-1.5 3.3-2.1-0.6 0.5 0.4-0.2 0.6-0.1 3.2-1.9 5.8-2.6 8.7-3.7-0.7 0.2-1.3 0.4-1.4 0.3 0.7-0.2 1.1-0.4 1-0.5-2.8 0.8-7.2 2.7-10.7 4.8 6.3-4.3 14.3-6.9 22.2-7 7.9-0.2 15.6 1.8 21.7 5 4.1 1.8 8 5.1 11.1 8.3 0.9 0.8 0.2-0.2 1.5 1.2-0.4-0.2-0.7-0.4-0.2 0.2 0.8 0.9-0.2-0.7 1.1 0.9-0.1 0-0.5-0.5-0.5-0.3 3.5 3.1 6.2 8.7 7.8 12.4-0.4-1.5-1.4-3.6-2.2-5.1 2.4 4.4 3.2 7 4.2 10.9 0.4 0.3-0.2-1.4 0.2-0.6 0.1 0.6 0.2 2.5 0.6 2.8-0.3-1.9-0.8-4.2-1.2-4.6 0.3 0.2-0.5-2.3-1-2.9-0.2-1.6-1.6-4.4-2.8-6.5-4.3-8.4-12-15.3-20.6-19.1 0-0.2-0.5-0.4-0.7-0.6-8.5-3.6-18.7-4.6-28.5-2.3-9.9 2.4-19.2 8.1-25.8 16.3 0.3-1 2.8-2.9 2.9-3.7-2.9 3.1-6 7.2-8.1 11.6-2.2 4.4-3.4 8.9-3.9 12.2" fill="url(#2413d2b1-81d6-47be-8a9d-c965224bed80)" fill-rule="nonzero" stroke="none" stroke-width="1" stroke-linecap="butt" stroke-linejoin="miter" stroke-miterlimit="10" stroke-dasharray="" stroke-dashoffset="0" font-family="none" font-weight="none" font-size="none" text-anchor="none" style="mix-blend-mode: normal" data-fill-palette-color="tertiary"></path></g><g transform="matrix(1,0,0,1,48,142.81929595192793)"><svg viewBox="0 0 224 74.36140809614415" height="74.36140809614415" width="224"><g><svg viewBox="0 0 371.1483356384214 123.21032522595237" height="74.36140809614415" width="224"><g transform="matrix(1,0,0,1,147.14833563842132,36.2552642619484)"><svg viewBox="0 0 224.00000000000003 50.69979670205557" height="50.69979670205557" width="224.00000000000003"><g id="textblocktransform"><svg viewBox="0 0 224.00000000000003 50.69979670205557" height="50.69979670205557" width="224.00000000000003" id="textblock"><g><svg viewBox="0 0 224.00000000000003 50.69979670205557" height="50.69979670205557" width="224.00000000000003"><g transform="matrix(1,0,0,1,0,0)"><svg width="224.00000000000003" viewBox="5.4 -37.35 222.07999999999998 50.1" height="50.69979670205557" data-palette-color="#cccd1b"><g class="wordmark-text-0" data-fill-palette-color="primary" id="text-0"><path d="M5.55-35L8.5-34.9 16.35-35Q29.25-35 29.25-25.45L29.25-25.45Q29.25-19.95 25.48-16.9 21.7-13.85 15.8-13.85L15.8-13.85Q13.75-13.85 11.5-14.3L11.5-14.3 11.5-6.75Q11.5-2.65 12.45-0.3L12.45-0.3 12.45 0 5.4 0 5.4-0.35Q6.35-2.9 6.35-7.5L6.35-7.5 6.35-26.65Q6.35-31.9 5.55-34.65L5.55-34.65 5.55-35ZM23.6-24.95L23.6-24.95Q23.6-32.45 16.4-32.45L16.4-32.45Q12.75-32.45 11.6-32.3L11.6-32.3Q11.5-30.95 11.5-23.5L11.5-23.5 11.5-16.65Q13.45-16.1 15.55-16.1L15.55-16.1Q19.5-16.1 21.55-18.43 23.6-20.75 23.6-24.95ZM41.55-0.6L41.55 0 35.1 0 35.1-0.6Q35.95-3.1 35.95-8.5L35.95-8.5 35.95-29.35Q35.95-33.35 33.65-35.55L33.65-35.55 33.65-36.15 40.5-37.35 40.8-36.85Q40.65-35.4 40.65-27.25L40.65-27.25 40.7-8.5Q40.7-3.1 41.55-0.6L41.55-0.6ZM60.85-5.3L60.85-10Q58.8-10.75 56.12-10.75 53.45-10.75 52.25-9.9L52.25-9.9Q51.5-8.75 51.5-6.83 51.5-4.9 52.55-3.8 53.6-2.7 55.17-2.7 56.75-2.7 58.4-3.53 60.05-4.35 60.85-5.3L60.85-5.3ZM61.65-2.8L61.65-2.8Q58.6 0.55 54.77 0.55 50.95 0.55 48.77-1.1 46.6-2.75 46.6-6.43 46.6-10.1 49.17-11.7 51.75-13.3 56.45-13.3L56.45-13.3 60.85-13.15 60.85-16Q60.85-18.65 59.55-20.3 58.25-21.95 55.6-21.95L55.6-21.95Q53.65-21.9 49.35-18.2L49.35-18.2Q47.9-20.05 47.3-23L47.3-23Q52.25-24.6 56.4-24.6 60.55-24.6 63.05-22.45 65.55-20.3 65.55-16.35L65.55-16.35 65.55-7.95Q65.59-5.7 66.27-3.78 66.95-1.85 68.05-1.1L68.05-1.1 68.15-0.6 62.8 0.7Q62.15-0.9 61.65-2.8ZM82.24-4.6L82.24-4.6Q87.04-19.25 87.04-22L87.04-22Q87.04-22.85 86.69-23.4L86.69-23.4 86.69-24 92.04-24 92.04-23.4Q91.29-22.75 83.89-0.5L83.89-0.5Q80.34 9.9 79.84 11.9L79.84 11.9 79.84 12.3 73.64 12.75 73.59 12.4Q77.24 8.05 79.99 0.7L79.99 0.7Q79.69-0.15 71.34-19.9L71.34-19.9Q70.34-22.25 69.19-23.2L69.19-23.2 69.19-23.8 75.89-24.35 75.89-23.75Q75.89-22.45 77.09-18.73 78.29-15 82.24-4.6ZM100.69-0.35L100.69 0 95.64 0 95.64-0.35Q96.39-3.65 96.39-11.95L96.39-11.95 96.39-23.15Q96.39-30.85 95.74-34.65L95.74-34.65 95.74-35 101.79-35.45 119.29-8.25 119.29-24.5Q119.29-27.15 118.99-30.28 118.69-33.4 118.24-34.65L118.24-34.65 118.24-35 123.49-35 123.49-34.65Q122.74-31.35 122.74-23.05L122.74-23.05 122.74-10.5Q122.74-7.5 122.97-4.08 123.19-0.65 123.39 0L123.39 0 118.69 0.5 99.79-28.75 99.79-10.5Q99.79-3.85 100.69-0.35L100.69-0.35ZM140.89 0.55L140.89 0.55Q135.64 0.55 132.69-2.7 129.74-5.95 129.74-11.28 129.74-16.6 133.04-20.6 136.34-24.6 141.24-24.6L141.24-24.6Q150.19-24.6 150.19-13.55L150.19-13.55 148.34-11.75 135.04-11.75Q135.04-7.55 136.84-5.45 138.64-3.35 141.69-3.35L141.69-3.35Q142.89-3.35 145.09-4.08 147.29-4.8 148.99-5.8L148.99-5.8 150.24-3.9Q149.29-2.95 146.11-1.2 142.94 0.55 140.89 0.55ZM140.34-22.1L140.34-22.1Q138.24-22.1 137.09-21.15L137.09-21.15Q136.14-19.85 135.59-17.85 135.04-15.85 135.04-14.35L135.04-14.35 145.29-14.75Q145.29-22.1 140.34-22.1ZM168.94-23.4L168.94-24 175.64-24 175.64-23.4Q174.59-23.05 172.99-21.45 171.39-19.85 169.89-17.5L169.89-17.5 166.74-12.7 170.44-7.8Q175.29-1.35 176.79-0.6L176.79-0.6 176.79 0 168.44 0 168.44-0.6Q168.19-3.05 166.59-5.2L166.59-5.2 163.59-9.2 160.64-4.65Q159.04-2.15 158.94-0.6L158.94-0.6 158.94 0 152.24 0 152.24-0.6Q152.94-0.9 154.61-2.38 156.29-3.85 157.54-5.75L157.54-5.75 161.54-12 157.44-17.6Q155.99-19.6 154.41-21.33 152.84-23.05 152.19-23.4L152.19-23.4 152.19-24 159.74-24 159.74-23.4Q159.84-22 162.09-19L162.09-19 164.69-15.45 167.24-19.35Q168.84-21.85 168.94-23.4L168.94-23.4ZM188.43 0.55L188.43 0.55Q184.23 0.55 182.56-1.63 180.88-3.8 180.88-8.35L180.88-8.35 180.88-15.5Q180.88-20.25 179.38-23.65L179.38-23.65 179.38-24 186.33-24 186.33-23.65Q185.58-21 185.58-17L185.58-17 185.58-9.15Q185.58-6.15 186.33-4.85 187.08-3.55 189.98-3.55 192.88-3.55 196.78-6.3L196.78-6.3 196.78-15.5Q196.78-20.35 195.33-23.65L195.33-23.65 195.33-24 202.23-24 202.23-23.65Q201.48-21 201.48-17L201.48-17 201.48-8.55Q201.48-6.35 202.23-4.23 202.98-2.1 203.98-1.4L203.98-1.4 204.03-0.8 198.18 0.6Q197.33-1.7 196.98-3.8L196.98-3.8Q194.53-1.7 192.53-0.58 190.53 0.55 188.43 0.55ZM214.78-21.45L214.78-21.45Q213.88-20.55 213.88-18.98 213.88-17.4 214.88-16.53 215.88-15.65 217.41-15.25 218.93-14.85 220.68-14.25 222.43-13.65 223.96-12.98 225.48-12.3 226.48-10.8 227.48-9.3 227.48-7.15L227.48-7.15Q227.48-3.35 224.68-1.4 221.88 0.55 217.31 0.55 212.73 0.55 209.18-1.8L209.18-1.8Q209.33-4.35 210.68-6.35L210.68-6.35Q215.18-2.25 218.88-2.25L218.88-2.25Q220.48-2.25 221.73-2.9L221.73-2.9Q222.93-3.95 222.93-5.73 222.93-7.5 221.56-8.47 220.18-9.45 218.23-10 216.28-10.55 214.33-11.25 212.38-11.95 211.01-13.45 209.63-14.95 209.63-17.35L209.63-17.35Q209.63-20.85 212.26-22.73 214.88-24.6 218.88-24.6 222.88-24.6 226.73-22.9L226.73-22.9Q226.28-20.7 224.98-18.5L224.98-18.5Q221.43-22.05 217.58-22.05L217.58-22.05Q215.93-22.05 214.78-21.45Z" fill="#cccd1b" data-fill-palette-color="primary"></path></g></svg></g></svg></g></svg></g></svg></g><g><svg viewBox="0 0 123.21032522595237 123.21032522595237" height="123.21032522595237" width="123.21032522595237"><g><svg></svg></g><g id="icon-0"><svg viewBox="0 0 123.21032522595237 123.21032522595237" height="123.21032522595237" width="123.21032522595237"><g><path d="M0 61.605c0-34.024 27.582-61.605 61.605-61.605 34.024 0 61.605 27.582 61.605 61.605 0 34.024-27.582 61.605-61.605 61.605-34.024 0-61.605-27.582-61.605-61.605zM61.605 118.638c31.498 0 57.033-25.535 57.033-57.033 0-31.498-25.535-57.033-57.033-57.033-31.498 0-57.033 25.535-57.033 57.033 0 31.498 25.535 57.033 57.033 57.033z" data-fill-palette-color="accent" fill="#cccd1b" stroke="transparent"></path></g><g transform="matrix(1,0,0,1,31.420548167133248,26.17105000263882)"><svg viewBox="0 0 60.36922889168588 70.86822522067473" height="70.86822522067473" width="60.36922889168588"><g><svg xmlns:x="http://ns.adobe.com/Extensibility/1.0/" xmlns:i="http://ns.adobe.com/AdobeIllustrator/10.0/" xmlns:graph="http://ns.adobe.com/Graphs/1.0/" xmlns="http://www.w3.org/2000/svg" xmlns:xlink="http://www.w3.org/1999/xlink" version="1.1" x="0" y="0" viewBox="9 5.000000000000002 46 54" enable-background="new 0 0 64 64" xml:space="preserve" height="70.86822522067473" width="60.36922889168588" class="icon-cg-0" data-fill-palette-color="accent" id="cg-0"><g fill="#cccd1b" data-fill-palette-color="accent"><path d="M50.989 50.181C50.99 50.119 51 50.061 51 50c0-3.859-3.141-7-7-7-2.104 0-4.038 0.924-5.372 2.531-1.17-0.189-2.382-0.332-3.628-0.421V22.475c3.49-1.24 6-4.566 6-8.475 0-4.962-4.037-9-9-9-4.962 0-9 4.038-9 9 0 3.909 2.51 7.235 6 8.475V45.11C17.529 45.93 9 51.313 9 56c0 0.553 0.448 1 1 1h5v1c0 0.553 0.448 1 1 1s1-0.447 1-1v-1h30v1c0 0.553 0.447 1 1 1s1-0.447 1-1v-1h5c0.553 0 1-0.447 1-1C55 54.055 53.527 51.99 50.989 50.181zM32 9c2.757 0 5 2.243 5 5 0 0.552-0.447 1-1 1s-1-0.448-1-1c0-1.654-1.346-3-3-3-0.552 0-1-0.448-1-1S31.448 9 32 9z" fill="#cccd1b" data-fill-palette-color="accent"></path></g></svg><g></g></g></svg></g></svg></g></svg></g></svg></g></svg></g></svg></g><defs></defs><mask id="614565f2-90aa-4cae-a26b-b79191c95b8d"><g id="SvgjsG2870"><svg viewBox="0 0 320 360" height="360" width="320"><g><svg></svg></g><g><svg viewBox="0 0 320 360" height="360" width="320"><g><path transform="translate(-19.44751,3.1739) scale(3.53591,3.53591)" d="M67.6 10.7c0.2 0 1.8 0.8 2.7 1.1-0.3 0.1-1-0.2-1.8-0.5 0.2 0 0.6 0.1 1 0.3-0.2-0.2-1.7-0.7-1.9-0.9M52.7 7.6c0.3-0.1 3.8 0.4 5.4 0.5 0.1-0.1-0.2-0.1-0.6-0.2 0.5-0.1 1.5 0.2 2.2 0.3-2.1 0.1-4.4-0.5-6.4-0.3-0.7 0-0.2-0.2-0.6-0.3M49.8 7.6c1.8 0 3.2 0 0.6 0.2-0.3-0.1-0.7-0.1-0.6-0.2M78.1 15.9c0.2 0 1 0.9 1.4 1.2-0.1 0.1-0.9-0.7-1.3-1 0.1 0.1 0 0-0.1-0.2M76.1 14.6c-0.8-0.7-1.1-0.7-1.2-1.1 0.7 0.4 1.2 0.8 1.2 1.1M63.2 8.3c0.1-0.1 0.3 0.1 0.8 0.2-0.6-0.1-0.5 0-0.3 0.2-0.7-0.1-0.9-0.2-0.7-0.4 0.4 0.2 0.5 0.1 0.2 0M34.8 9.5c0-0.1 0.4-0.3 0.7-0.4-0.3 0.2-0.2 0.3 0.3 0.1 0 0.1-0.6 0.3-1 0.5 0.2-0.1 0.4-0.4 0-0.2M65.2 7.3c-0.3 0.1-1.4-0.5-2.5-0.7-0.6-0.2 2.4 0.5 2.5 0.7M6.2 56.7c0.6 2.5 0.2 2.4 0 0M6.3 41.7c0.1-0.4 0.2-1.5 0.3-1.4-0.3 2.4-0.8 3.5-0.9 5.3 0.3-1.6-0.1 0.9-0.2 1.5 0.1 0.8 0.1-0.5 0.3-0.3 0.2 0.3-0.4 4.5-0.2 2.2-0.2 2.1 0 4.4 0.4 5-0.5 3.2 2 10.4 2.5 11.9 0.1 0.1 0-0.5 0.2-0.1 0.2 1.3 1.1 2.2 1.4 3.6 0.3 0.4 1.5 2.6 1.7 3.1 0.4 0.8 0.6 0.7 1 1.5 1.2 2.3 3.1 4.5 4.9 6.6 5.8 6.8 14.7 12.4 24.6 14.4 9.9 2.1 20.3 0.6 28.4-3.3 0.5-0.3 0.4-0.4 1-0.6 2.8-0.9 6.2-3.8 8.1-4.9 0.9-1 3.3-2.7 3.6-3.7 1.7-1.4 3.4-3.7 4.3-5.2 0.5-0.8 0.9-0.8 1.1-1.3-0.1 0 1.6-2.1 2.1-3.3-0.2 0-0.5 0.6-0.5 0 3.6-6.9 5.6-16.2 4.5-22.6 0.2 7.9-1.8 16.7-5.6 22.3-1.7 3.6-5.2 7.5-8.4 10.3-0.5 0.5-1 1.1-1.6 1.5-1.9 1.6-4 2.9-6.2 4.1-5.2 2.9-11 5.4-17.8 5.5 11.7-1 22.2-6.9 28-14.1-4.4 4.3-6.3 6-11.2 8.5-0.4 0.7-3.7 2.1-5.9 2.7 1.3-0.6 4-1.6 4.9-2.4-7.3 3.5-15.4 5.5-23 4.4 2.9 0 7 0.1 10.9-0.6 0.6-0.2 0.9-0.4 1.6-0.5 7.6-1.7 14.9-5.4 20.1-10.6-3 2.7-7.5 5.9-10.4 6.9 2.7-1.5 7.6-4.4 9.2-6.6-3.2 3.2-9.2 6.4-13 7.8-0.6 0.1 0.4-0.4-0.6 0-1.2 0.3-0.7 0.3-1 0.5-4.6 1.3-9.9 2.4-14.3 2-0.8-0.1-1.1-0.3-1.8-0.3-0.8-0.1-1.5-0.1-2.4-0.1-3.5-0.4-7.3-1.8-10.1-3-1.5-0.7-3-1.2-4.5-2.1-1.2-0.7-2.2-1.5-3.2-2.3-3.8-2.8-7-5.6-10-9.6-5.4-7.5-8.2-16.9-7.8-26.2 0.4-9.3 4.1-18.4 10-25.1-0.3 0.3 0.4-0.7 1-1.3 0 0.2-0.1 0.5 0.6-0.2 0.6-0.7-0.2-0.2 0.1-0.6 6.2-6.8 17-12.3 28.1-12.5 0.4-0.3 1.1-0.7 1.9-0.5 0 0.1-0.5 0.1-0.5 0.1 1.1-0.1 2.1-0.1 2.6 0.1 0.1-0.1-0.4-0.2 0-0.2 0.7 0.2 0.9 0 1.3 0.2-0.3 0-0.6 0-0.8 0.1 2.5 0 4.1 0.6 6.6 0.8-1.3-0.3-1.6-0.3-2.6-0.6 1.1 0.2 1.6 0.4 2.1 0.3-0.2 0-0.1-0.3 0.1-0.2 2 0.5 2.2 0.7 4.3 1.4 0.2-0.2-0.9-0.3-1.2-0.6 2 0.7 3.8 1.2 5 2-0.4-0.3-1.6-0.7-2.5-1.1-0.1 0.1 0.3 0.2 0.4 0.4-1-0.5-2.4-1-3.8-1.2 1.2 0.3 2 0.7 2.5 0.9-1.1-0.2-2.5-0.9-4.1-1.2 2.6 0.8 7.5 2.6 10.5 4.2-1.1-0.7-2.4-1.2-3.1-1.6 0.6 0.1 1.3 0.5 1.3 0.3 0.7 0.3 1.6 1 2.1 1.1-0.9-0.6-2.7-1.5-3.3-1.8 7.5 3.4 14.2 9.1 18.5 16.4 0.4 0.7 1 2.3 1.5 2.5-0.1-0.5-0.5-0.8-0.9-1.6 0.2 0 0.2-0.3 0-0.6-0.4-0.5 0 0.4-0.4-0.1-1.8-3.3-4-6.2-7.4-9.4 1.9 1.8 0.5 0.5 0.1-0.1 2.6 2.3 5.6 6.2 6.9 8.2-0.2-0.3-0.3-0.5-0.2-0.5 2.4 4.1 3.9 7.8 5.4 13.1 0.1 0.1 0-0.4 0.2-0.1 1 4.2 1.3 7.7 1.2 10.9 0.8-5.4-1-13.8-4.2-20.4-0.4-0.8-0.4-0.2-0.8-1.1 0-0.3-0.3-0.9-0.5-1.3-4-6.6-8.9-11.3-14.7-15 0.4 0.2 1.2 0.8 1.2 0.7-10.8-7.1-23.3-8.1-33.6-5.9-0.7 0.3-1 0.6-1.8 1 1.5-0.5 2.4-0.6 3.8-0.9 0.3-0.3-1.3 0.1-0.6-0.2 0.1 0.1 1.4-0.2 1.7-0.1 0 0.1-0.4 0.2-0.5 0.3 3.3-0.7 6.7-0.8 9.6-0.6-1.7 0.1-4.8-0.2-5.8 0.3 1-0.1 2.4-0.2 3.3-0.1-1.2 0-3.4 0.1-4.4 0.2-0.1-0.1 1.6-0.3 0.5-0.3-0.5 0.1-1.3 0.1-1.6 0.4-8.6 0.8-17 5.3-22.9 10.6-1.2 1-2.6 2.1-3.5 3.2-2.2 2.5-3.6 5-5.2 7.2 1-2.1 3.2-5.3 5.8-8 2.6-2.7 5.4-5 6.9-6.2 0 0.4 2.4-1.5 3.3-2.1-0.6 0.5 0.4-0.2 0.6-0.1 3.2-1.9 5.8-2.6 8.7-3.7-0.7 0.2-1.3 0.4-1.4 0.3 0.7-0.2 1.1-0.4 1-0.5-2.8 0.8-7.2 2.7-10.7 4.8 6.3-4.3 14.3-6.9 22.2-7 7.9-0.2 15.6 1.8 21.7 5 4.1 1.8 8 5.1 11.1 8.3 0.9 0.8 0.2-0.2 1.5 1.2-0.4-0.2-0.7-0.4-0.2 0.2 0.8 0.9-0.2-0.7 1.1 0.9-0.1 0-0.5-0.5-0.5-0.3 3.5 3.1 6.2 8.7 7.8 12.4-0.4-1.5-1.4-3.6-2.2-5.1 2.4 4.4 3.2 7 4.2 10.9 0.4 0.3-0.2-1.4 0.2-0.6 0.1 0.6 0.2 2.5 0.6 2.8-0.3-1.9-0.8-4.2-1.2-4.6 0.3 0.2-0.5-2.3-1-2.9-0.2-1.6-1.6-4.4-2.8-6.5-4.3-8.4-12-15.3-20.6-19.1 0-0.2-0.5-0.4-0.7-0.6-8.5-3.6-18.7-4.6-28.5-2.3-9.9 2.4-19.2 8.1-25.8 16.3 0.3-1 2.8-2.9 2.9-3.7-2.9 3.1-6 7.2-8.1 11.6-2.2 4.4-3.4 8.9-3.9 12.2" fill="white" fill-rule="nonzero" stroke="none" stroke-width="1" stroke-linecap="butt" stroke-linejoin="miter" stroke-miterlimit="10" stroke-dasharray="" stroke-dashoffset="0" font-family="none" font-weight="none" font-size="none" text-anchor="none" style="mix-blend-mode: normal"></path></g><g transform="matrix(1,0,0,1,48,142.81929595192793)"><svg viewBox="0 0 224 74.36140809614415" height="74.36140809614415" width="224"><g><svg viewBox="0 0 371.1483356384214 123.21032522595237" height="74.36140809614415" width="224"><g transform="matrix(1,0,0,1,147.14833563842132,36.2552642619484)"><svg viewBox="0 0 224.00000000000003 50.69979670205557" height="50.69979670205557" width="224.00000000000003"><g id="SvgjsG2869"><svg viewBox="0 0 224.00000000000003 50.69979670205557" height="50.69979670205557" width="224.00000000000003" id="SvgjsSvg2868"><g><svg viewBox="0 0 224.00000000000003 50.69979670205557" height="50.69979670205557" width="224.00000000000003"><g transform="matrix(1,0,0,1,0,0)"><svg width="224.00000000000003" viewBox="5.4 -37.35 222.07999999999998 50.1" height="50.69979670205557" data-palette-color="#cccd1b"><g class="wordmark-text-0" data-fill-palette-color="primary" id="SvgjsG2867"><path d="M5.55-35L8.5-34.9 16.35-35Q29.25-35 29.25-25.45L29.25-25.45Q29.25-19.95 25.48-16.9 21.7-13.85 15.8-13.85L15.8-13.85Q13.75-13.85 11.5-14.3L11.5-14.3 11.5-6.75Q11.5-2.65 12.45-0.3L12.45-0.3 12.45 0 5.4 0 5.4-0.35Q6.35-2.9 6.35-7.5L6.35-7.5 6.35-26.65Q6.35-31.9 5.55-34.65L5.55-34.65 5.55-35ZM23.6-24.95L23.6-24.95Q23.6-32.45 16.4-32.45L16.4-32.45Q12.75-32.45 11.6-32.3L11.6-32.3Q11.5-30.95 11.5-23.5L11.5-23.5 11.5-16.65Q13.45-16.1 15.55-16.1L15.55-16.1Q19.5-16.1 21.55-18.43 23.6-20.75 23.6-24.95ZM41.55-0.6L41.55 0 35.1 0 35.1-0.6Q35.95-3.1 35.95-8.5L35.95-8.5 35.95-29.35Q35.95-33.35 33.65-35.55L33.65-35.55 33.65-36.15 40.5-37.35 40.8-36.85Q40.65-35.4 40.65-27.25L40.65-27.25 40.7-8.5Q40.7-3.1 41.55-0.6L41.55-0.6ZM60.85-5.3L60.85-10Q58.8-10.75 56.12-10.75 53.45-10.75 52.25-9.9L52.25-9.9Q51.5-8.75 51.5-6.83 51.5-4.9 52.55-3.8 53.6-2.7 55.17-2.7 56.75-2.7 58.4-3.53 60.05-4.35 60.85-5.3L60.85-5.3ZM61.65-2.8L61.65-2.8Q58.6 0.55 54.77 0.55 50.95 0.55 48.77-1.1 46.6-2.75 46.6-6.43 46.6-10.1 49.17-11.7 51.75-13.3 56.45-13.3L56.45-13.3 60.85-13.15 60.85-16Q60.85-18.65 59.55-20.3 58.25-21.95 55.6-21.95L55.6-21.95Q53.65-21.9 49.35-18.2L49.35-18.2Q47.9-20.05 47.3-23L47.3-23Q52.25-24.6 56.4-24.6 60.55-24.6 63.05-22.45 65.55-20.3 65.55-16.35L65.55-16.35 65.55-7.95Q65.59-5.7 66.27-3.78 66.95-1.85 68.05-1.1L68.05-1.1 68.15-0.6 62.8 0.7Q62.15-0.9 61.65-2.8ZM82.24-4.6L82.24-4.6Q87.04-19.25 87.04-22L87.04-22Q87.04-22.85 86.69-23.4L86.69-23.4 86.69-24 92.04-24 92.04-23.4Q91.29-22.75 83.89-0.5L83.89-0.5Q80.34 9.9 79.84 11.9L79.84 11.9 79.84 12.3 73.64 12.75 73.59 12.4Q77.24 8.05 79.99 0.7L79.99 0.7Q79.69-0.15 71.34-19.9L71.34-19.9Q70.34-22.25 69.19-23.2L69.19-23.2 69.19-23.8 75.89-24.35 75.89-23.75Q75.89-22.45 77.09-18.73 78.29-15 82.24-4.6ZM100.69-0.35L100.69 0 95.64 0 95.64-0.35Q96.39-3.65 96.39-11.95L96.39-11.95 96.39-23.15Q96.39-30.85 95.74-34.65L95.74-34.65 95.74-35 101.79-35.45 119.29-8.25 119.29-24.5Q119.29-27.15 118.99-30.28 118.69-33.4 118.24-34.65L118.24-34.65 118.24-35 123.49-35 123.49-34.65Q122.74-31.35 122.74-23.05L122.74-23.05 122.74-10.5Q122.74-7.5 122.97-4.08 123.19-0.65 123.39 0L123.39 0 118.69 0.5 99.79-28.75 99.79-10.5Q99.79-3.85 100.69-0.35L100.69-0.35ZM140.89 0.55L140.89 0.55Q135.64 0.55 132.69-2.7 129.74-5.95 129.74-11.28 129.74-16.6 133.04-20.6 136.34-24.6 141.24-24.6L141.24-24.6Q150.19-24.6 150.19-13.55L150.19-13.55 148.34-11.75 135.04-11.75Q135.04-7.55 136.84-5.45 138.64-3.35 141.69-3.35L141.69-3.35Q142.89-3.35 145.09-4.08 147.29-4.8 148.99-5.8L148.99-5.8 150.24-3.9Q149.29-2.95 146.11-1.2 142.94 0.55 140.89 0.55ZM140.34-22.1L140.34-22.1Q138.24-22.1 137.09-21.15L137.09-21.15Q136.14-19.85 135.59-17.85 135.04-15.85 135.04-14.35L135.04-14.35 145.29-14.75Q145.29-22.1 140.34-22.1ZM168.94-23.4L168.94-24 175.64-24 175.64-23.4Q174.59-23.05 172.99-21.45 171.39-19.85 169.89-17.5L169.89-17.5 166.74-12.7 170.44-7.8Q175.29-1.35 176.79-0.6L176.79-0.6 176.79 0 168.44 0 168.44-0.6Q168.19-3.05 166.59-5.2L166.59-5.2 163.59-9.2 160.64-4.65Q159.04-2.15 158.94-0.6L158.94-0.6 158.94 0 152.24 0 152.24-0.6Q152.94-0.9 154.61-2.38 156.29-3.85 157.54-5.75L157.54-5.75 161.54-12 157.44-17.6Q155.99-19.6 154.41-21.33 152.84-23.05 152.19-23.4L152.19-23.4 152.19-24 159.74-24 159.74-23.4Q159.84-22 162.09-19L162.09-19 164.69-15.45 167.24-19.35Q168.84-21.85 168.94-23.4L168.94-23.4ZM188.43 0.55L188.43 0.55Q184.23 0.55 182.56-1.63 180.88-3.8 180.88-8.35L180.88-8.35 180.88-15.5Q180.88-20.25 179.38-23.65L179.38-23.65 179.38-24 186.33-24 186.33-23.65Q185.58-21 185.58-17L185.58-17 185.58-9.15Q185.58-6.15 186.33-4.85 187.08-3.55 189.98-3.55 192.88-3.55 196.78-6.3L196.78-6.3 196.78-15.5Q196.78-20.35 195.33-23.65L195.33-23.65 195.33-24 202.23-24 202.23-23.65Q201.48-21 201.48-17L201.48-17 201.48-8.55Q201.48-6.35 202.23-4.23 202.98-2.1 203.98-1.4L203.98-1.4 204.03-0.8 198.18 0.6Q197.33-1.7 196.98-3.8L196.98-3.8Q194.53-1.7 192.53-0.58 190.53 0.55 188.43 0.55ZM214.78-21.45L214.78-21.45Q213.88-20.55 213.88-18.98 213.88-17.4 214.88-16.53 215.88-15.65 217.41-15.25 218.93-14.85 220.68-14.25 222.43-13.65 223.96-12.98 225.48-12.3 226.48-10.8 227.48-9.3 227.48-7.15L227.48-7.15Q227.48-3.35 224.68-1.4 221.88 0.55 217.31 0.55 212.73 0.55 209.18-1.8L209.18-1.8Q209.33-4.35 210.68-6.35L210.68-6.35Q215.18-2.25 218.88-2.25L218.88-2.25Q220.48-2.25 221.73-2.9L221.73-2.9Q222.93-3.95 222.93-5.73 222.93-7.5 221.56-8.47 220.18-9.45 218.23-10 216.28-10.55 214.33-11.25 212.38-11.95 211.01-13.45 209.63-14.95 209.63-17.35L209.63-17.35Q209.63-20.85 212.26-22.73 214.88-24.6 218.88-24.6 222.88-24.6 226.73-22.9L226.73-22.9Q226.28-20.7 224.98-18.5L224.98-18.5Q221.43-22.05 217.58-22.05L217.58-22.05Q215.93-22.05 214.78-21.45Z" fill="black"></path></g></svg></g></svg></g></svg></g></svg></g><g><svg viewBox="0 0 123.21032522595237 123.21032522595237" height="123.21032522595237" width="123.21032522595237"><g><svg></svg></g><g id="SvgjsG2866"><svg viewBox="0 0 123.21032522595237 123.21032522595237" height="123.21032522595237" width="123.21032522595237"><g><path d="M0 61.605c0-34.024 27.582-61.605 61.605-61.605 34.024 0 61.605 27.582 61.605 61.605 0 34.024-27.582 61.605-61.605 61.605-34.024 0-61.605-27.582-61.605-61.605zM61.605 118.638c31.498 0 57.033-25.535 57.033-57.033 0-31.498-25.535-57.033-57.033-57.033-31.498 0-57.033 25.535-57.033 57.033 0 31.498 25.535 57.033 57.033 57.033z" fill="black" stroke="transparent"></path></g><g transform="matrix(1,0,0,1,31.420548167133248,26.17105000263882)"><svg viewBox="0 0 60.36922889168588 70.86822522067473" height="70.86822522067473" width="60.36922889168588"><g><svg xmlns:x="http://ns.adobe.com/Extensibility/1.0/" xmlns:i="http://ns.adobe.com/AdobeIllustrator/10.0/" xmlns:graph="http://ns.adobe.com/Graphs/1.0/" xmlns="http://www.w3.org/2000/svg" xmlns:xlink="http://www.w3.org/1999/xlink" version="1.1" x="0" y="0" viewBox="9 5.000000000000002 46 54" enable-background="new 0 0 64 64" xml:space="preserve" height="70.86822522067473" width="60.36922889168588" class="icon-cg-0" data-fill-palette-color="accent" id="SvgjsSvg2865"><g fill="black"><path d="M50.989 50.181C50.99 50.119 51 50.061 51 50c0-3.859-3.141-7-7-7-2.104 0-4.038 0.924-5.372 2.531-1.17-0.189-2.382-0.332-3.628-0.421V22.475c3.49-1.24 6-4.566 6-8.475 0-4.962-4.037-9-9-9-4.962 0-9 4.038-9 9 0 3.909 2.51 7.235 6 8.475V45.11C17.529 45.93 9 51.313 9 56c0 0.553 0.448 1 1 1h5v1c0 0.553 0.448 1 1 1s1-0.447 1-1v-1h30v1c0 0.553 0.447 1 1 1s1-0.447 1-1v-1h5c0.553 0 1-0.447 1-1C55 54.055 53.527 51.99 50.989 50.181zM32 9c2.757 0 5 2.243 5 5 0 0.552-0.447 1-1 1s-1-0.448-1-1c0-1.654-1.346-3-3-3-0.552 0-1-0.448-1-1S31.448 9 32 9z" fill="black"></path></g></svg><g></g></g></svg></g></svg></g></svg></g></svg></g></svg></g></svg></g><defs><mask></mask></defs></svg><rect width="320" height="360" fill="black" stroke="none" visibility="hidden"></rect></g></mask><linearGradient x1="0.054" x2="0.941" y1="0.5" y2="0.5" id="2413d2b1-81d6-47be-8a9d-c965224bed80"><stop stop-color="#0f3054" offset="0"></stop><stop stop-color="#3b8dcb" offset="0.498"></stop><stop stop-color="#0f3054" offset="1"></stop></linearGradient></svg><rect width="320" height="360" fill="none" stroke="none" visibility="hidden"></rect></g></svg></g></svg>